<svg width="64" height="64" viewBox="0 0 64 64" fill="none" xmlns="http://www.w3.org/2000/svg">
<path fill-rule="evenodd" clip-rule="evenodd" d="M1.58887 62.4106L5.86675 46.7932C3.22761 42.2232 1.83976 37.037 1.84135 31.7254C1.84929 15.1077 15.3721 1.58801 31.9914 1.58801C40.0565 1.59119 47.6246 4.73053 53.3173 10.4264C59.0085 16.1239 62.143 23.6952 62.1399 31.7492C62.1335 48.3669 48.6075 61.8881 31.9914 61.8881C31.9898 61.8881 31.9914 61.8881 31.9914 61.8881H31.9787C26.9338 61.8865 21.9747 60.621 17.5714 58.2184L1.58887 62.4106Z" fill="white"/>
<path fill-rule="evenodd" clip-rule="evenodd" d="M1.58819 63.2043C1.37859 63.2043 1.17533 63.1217 1.02448 62.9693C0.825986 62.7676 0.748178 62.4739 0.822811 62.2023L5.01336 46.901C2.41551 42.2865 1.04512 37.0463 1.0483 31.7267C1.05465 14.6692 14.9348 0.793823 31.9907 0.793823C40.2639 0.796999 48.0368 4.01891 53.8788 9.86568C59.7208 15.714 62.9363 23.4854 62.9332 31.749C62.9268 48.8049 49.0451 62.6819 31.9907 62.6819C26.9268 62.6803 21.9169 61.4306 17.4707 59.0662L1.78986 63.1773C1.72317 63.1964 1.65647 63.2043 1.58819 63.2043Z" fill="white"/>
<path fill-rule="evenodd" clip-rule="evenodd" d="M31.9911 1.58793C40.0562 1.59111 47.6243 4.73045 53.3171 10.4264C59.0082 16.1239 62.1428 23.6951 62.1396 31.7491C62.1332 48.3668 48.6072 61.888 31.9911 61.888H31.9784C26.9336 61.8865 21.9745 60.6209 17.5711 58.2183L1.58859 62.4105L5.86647 46.7932C3.22733 42.2231 1.83948 37.0369 1.84107 31.7253C1.84901 15.1076 15.3718 1.58793 31.9911 1.58793ZM31.9911 0C14.4985 0 0.261074 14.231 0.253134 31.7253C0.251546 37.0719 1.60129 42.3406 4.16103 47.0044L0.056231 61.9929C-0.0930346 62.5407 0.0594068 63.125 0.459566 63.5284C0.761273 63.8333 1.16937 64 1.58859 64C1.72356 64 1.85853 63.9825 1.99192 63.9476L17.3742 59.9142C21.8649 62.2453 26.8986 63.476 31.9784 63.4776C49.4838 63.4776 63.7212 49.2449 63.7291 31.7507C63.7323 23.2727 60.4342 15.3013 54.4429 9.30528C48.4485 3.30766 40.4754 0.00317586 31.9911 0Z" fill="#CFD8DC"/>
<path fill-rule="evenodd" clip-rule="evenodd" d="M49.7139 14.0247C44.9819 9.28951 38.6921 6.68054 31.9974 6.67896C18.176 6.67896 6.93506 17.9152 6.92871 31.727C6.92712 36.4606 8.25146 41.0688 10.7604 45.0593L11.3575 46.0073L8.8247 55.2506L18.3094 52.7639L19.2257 53.307C23.0716 55.5904 27.4829 56.7973 31.9799 56.7988H31.9895C45.8013 56.7988 57.0422 45.5611 57.047 31.7476C57.0486 25.0545 54.446 18.7599 49.7139 14.0247Z" fill="#40C351"/>
<path fill-rule="evenodd" clip-rule="evenodd" d="M24.4546 19.1265C23.8909 17.8721 23.297 17.8467 22.7587 17.8244C22.3188 17.8054 21.817 17.807 21.3152 17.807C20.8134 17.807 19.9972 17.9959 19.3065 18.7502C18.6157 19.5045 16.6689 21.3258 16.6689 25.0321C16.6689 28.7383 19.3684 32.3207 19.7448 32.8225C20.1211 33.3242 24.9564 41.1734 32.6134 44.1936C38.9762 46.7026 40.272 46.204 41.6535 46.0785C43.035 45.9531 46.1108 44.2572 46.738 42.4977C47.3652 40.7383 47.3652 39.2314 47.1779 38.9169C46.9889 38.6025 46.4871 38.4152 45.7344 38.0372C44.9818 37.6593 41.2771 35.8379 40.5864 35.587C39.8956 35.3362 39.3938 35.2107 38.8905 35.965C38.3887 36.7177 36.9452 38.4152 36.5054 38.9169C36.0655 39.4203 35.6257 39.4838 34.873 39.1059C34.1203 38.728 31.694 37.934 28.815 35.3679C26.5761 33.3719 25.0643 30.9058 24.6245 30.1516C24.1846 29.3989 24.5768 28.9908 24.9548 28.6144C25.293 28.2762 25.7075 27.7347 26.0854 27.2949C26.4617 26.855 26.5872 26.5406 26.8381 26.0388C27.089 25.5354 26.9635 25.0956 26.7745 24.7192C26.5888 24.3413 25.1247 20.616 24.4546 19.1265Z" fill="white"/>
</svg>
