<svg width="800" height="262" viewBox="0 0 800 262" fill="none" xmlns="http://www.w3.org/2000/svg">
<path fill-rule="evenodd" clip-rule="evenodd" d="M2.61572 21.4746C7.15381 11.6416 14.2881 5.0896 24.187 1.66358C29.1616 -0.0573702 45.4678 -0.126462 401.387 0.0845975L773.387 0.304568L778.887 2.92957C787.044 6.82361 792.338 11.9446 796.095 19.5746L799.387 26.2616L799.655 128.714C799.912 226.468 800.167 236.188 795.819 242.948C795.107 244.056 794.271 245.085 793.291 246.409C788.353 253.079 782.125 257.629 774.824 259.902C768.859 261.758 759.653 261.805 399.903 261.805C31.875 261.805 31.084 261.801 24.5127 259.771C16.1558 257.19 7.30811 249.399 3.1748 240.983L0.386719 235.305V130.805V26.3046L2.61572 21.4746ZM785.142 18.3016C783.31 15.7805 780.153 13.2795 776.617 11.5486L771.002 8.79956L405.195 8.55164C204 8.41553 36.687 8.54163 33.3867 8.83155C23.0337 9.74158 15.3628 15.0045 11.0649 24.1486L8.88672 28.7826L8.90869 130.544C8.93066 230.717 8.96289 232.375 10.9658 236.805C13.6968 242.846 18.3379 247.553 24.3867 250.418L29.3867 252.785L399.887 252.773C770.334 252.761 770.388 252.761 774.887 250.726C780.691 248.102 785.454 243.502 788.464 237.613L790.862 232.921L790.901 131.049C790.938 35.682 791.202 27.1923 787.393 21.3651C786.761 20.3988 786.018 19.5056 785.142 18.3016ZM100.669 98.8046C83.5479 81.4796 65.6797 63.3106 60.9629 58.4286C54.8438 52.0956 53.0449 49.7086 54.6841 50.0975C55.9468 50.3966 71.2471 58.6456 88.6841 68.4276C106.121 78.2096 126.237 89.4796 133.387 93.4736C151.617 103.656 154.887 105.644 154.887 106.547C154.887 106.982 149.692 112.505 143.343 118.821L131.799 130.305L100.669 98.8046ZM237.475 84.5386C226.306 78.1605 226.885 57.9296 238.387 52.6755C247.903 48.3286 260.887 52.5715 260.887 60.0276C260.887 62.6705 257.445 62.2146 255.922 59.3706C253.212 54.3055 243.103 53.3735 238.436 57.7585C233.198 62.6796 232.861 73.5045 237.775 79.0045C241.129 82.7595 247.592 83.7905 253.167 81.4606C256.47 80.0806 256.887 79.5085 256.887 76.3556V72.8046H251.887C247.554 72.8046 246.887 72.5376 246.887 70.8046C246.887 68.9816 247.554 68.8046 254.433 68.8046H261.978L261.683 75.5546L261.387 82.3046L256.925 84.5546C250.902 87.5925 242.812 87.5856 237.475 84.5386ZM268.887 69.4716C268.887 59.9376 269.2 51.8246 269.583 51.4415C269.966 51.0596 275.703 50.8716 282.333 51.0256C293.627 51.2866 294.387 51.4305 294.387 53.3046C294.387 55.1555 293.625 55.3256 284.137 55.5896L273.887 55.8746V60.8396V65.8046H283.387C292.854 65.8046 292.887 65.8136 292.887 68.3046C292.887 70.7955 292.854 70.8046 283.387 70.8046H273.887V76.8046V82.8046H284.387C294.22 82.8046 294.887 82.9315 294.887 84.8046C294.887 86.7015 294.22 86.8046 281.887 86.8046H268.887V69.4716ZM298.887 53.9716C298.887 52.9625 299.187 51.8375 299.554 51.4716C299.92 51.1046 306.22 50.8046 313.554 50.8046H326.887V53.3046C326.887 55.6976 326.626 55.8046 320.803 55.8046H314.718L314.899 69.5546C315.081 83.4169 315.173 86.1578 314.138 86.686C313.83 86.8431 313.422 86.8046 312.887 86.8046C310.973 86.8046 310.887 86.1376 310.887 71.3046V55.8046H304.887C299.735 55.8046 298.887 55.5455 298.887 53.9716ZM345.111 69.8425C344.96 60.7896 345.058 52.8016 345.33 52.0925C345.602 51.3845 346.738 50.8046 347.856 50.8046C349.823 50.8046 349.887 51.3785 349.887 68.8745V86.9436L347.637 86.6245C345.421 86.3096 345.383 86.0576 345.111 69.8425ZM361.361 55.8046C356.172 55.8046 355.887 55.6726 355.887 53.2766V50.7485L369.637 51.0266C382.628 51.2896 383.387 51.4146 383.387 53.3046C383.387 55.0376 382.62 55.3446 377.637 55.6046L371.887 55.9045V71.4236V86.9436L369.637 86.6245C367.43 86.3105 367.382 86.0126 367.111 71.0546L366.835 55.8046H361.361ZM400.305 63.3906C401.106 59.1185 405.193 54.0366 409.337 52.1566C413.775 50.1436 422.795 50.8906 426.579 53.5856C431.016 56.7446 433.327 62.1716 433.272 69.3046C433.186 80.3885 427.148 86.8046 416.803 86.8046C404.82 86.8046 397.785 76.8206 400.305 63.3906ZM441.859 86.8046C439.969 86.8046 439.887 86.0515 439.887 68.7346V50.6655L442.119 50.9846C443.717 51.2136 446.916 55.0956 453.369 64.6356L462.387 77.9666L462.887 64.6356C463.356 52.1376 463.512 51.3046 465.387 51.3046C467.311 51.3046 467.387 51.9716 467.387 68.8046V86.3046L464.887 86.5665C462.69 86.7966 461.297 85.1716 453.387 73.1486L444.387 59.4686L444.109 73.1366C443.847 85.9785 443.711 86.8046 441.859 86.8046ZM43.1177 132.053C42.8809 65.3796 43.0308 56.2346 44.3911 54.1576C46.5029 50.9346 47.8418 51.1876 51.7939 55.5546C53.6606 57.6176 69.9106 74.2006 87.9058 92.4055C105.9 110.612 122.338 127.405 124.433 129.724L128.242 133.94L89.3188 172.873C67.9116 194.285 49.6768 211.805 48.7969 211.805C47.917 211.805 46.3398 210.858 45.292 209.7C43.459 207.675 43.377 204.732 43.1177 132.053ZM422.982 81.0896C429.441 77.2745 430.577 64.8466 425.034 58.6426C419.574 52.5326 408.623 54.3845 406.018 61.8596C404.453 66.3475 404.603 73.3556 406.336 76.7056C409.371 82.5746 417.046 84.5956 422.982 81.0896ZM233.458 129.247C237.525 120.65 249.299 110.966 258.387 108.743C260.037 108.34 264.787 107.964 268.943 107.907C278.391 107.779 287.026 110.52 292.833 115.491L297.019 119.074L293.834 122.36L290.649 125.645L286.582 122.699C274.289 113.794 257.773 115.611 247.253 127.024C241.363 133.414 239.591 138.823 240.062 148.976C240.513 158.701 242.423 163.383 248.366 169.326C253.998 174.958 259.069 177.149 267.561 177.619C282.791 178.462 293.942 170.69 296.415 157.508L297.11 153.805H282.998H268.887V149.305V144.805H288.028H307.169L306.645 153.211C305.727 167.916 299.098 177.795 285.887 184.146C279.942 187.003 278.533 187.27 269.387 187.27C260.235 187.27 258.816 187.001 252.646 184.094C231.913 174.327 223.503 150.289 233.458 129.247ZM135.887 134.158C135.887 133.546 141.37 127.637 148.072 121.027C155.605 113.598 160.792 109.215 161.658 109.547C165.637 111.074 191.563 126.138 192.637 127.547C194.576 130.092 194.116 134.241 191.637 136.567C189.058 138.987 159.203 155.805 157.487 155.805C156.021 155.805 135.887 135.627 135.887 134.158ZM487.887 185.805V147.25V108.695L492.637 109L497.387 109.305L497.649 147.555L497.911 185.805H492.899H487.887ZM583.637 184.555C583.775 184.143 583.887 166.877 583.887 146.188V108.57L600.137 108.997C614.153 109.365 616.939 109.71 620.4 111.514C632.386 117.757 636.903 129.868 631.51 141.305C626.711 151.48 620.189 154.751 604.637 154.783L593.887 154.805V170.357V185.91L588.637 185.607C585.749 185.441 583.499 184.967 583.637 184.555ZM639.887 147.972C639.887 127.163 640.208 109.817 640.601 109.425C640.993 109.032 643.131 108.845 645.351 109.008L649.387 109.305L649.649 147.555L649.911 185.805H644.899H639.887V147.972ZM622.414 136.374C624.483 130.957 623.371 126.602 618.801 122.22C615.88 119.419 615.335 119.292 604.824 118.967L593.887 118.628V131.717C593.887 143.488 594.063 144.812 595.637 144.875C596.599 144.913 601.322 144.946 606.131 144.947C616.573 144.95 619.784 143.259 622.414 136.374ZM310.893 159.737C310.879 148.633 316.98 138.533 326.331 134.179C330.008 132.466 333.159 131.825 337.887 131.825C354.38 131.825 365.879 144.697 364.656 161.791C363.772 174.151 356.843 183.308 345.989 186.464C328.048 191.679 310.916 178.632 310.893 159.737ZM371.203 146.591C374.213 140.44 379.652 135.403 385.712 133.154C390.611 131.337 402.346 131.882 406.995 134.143C416.474 138.754 421.862 148.063 421.877 159.859C421.889 168.89 419.049 175.619 412.871 181.2C405.459 187.897 392.241 189.577 383.212 184.971C373.595 180.064 368.607 171.537 368.489 159.799C368.426 153.52 368.869 151.362 371.203 146.591ZM425.897 160.181C425.88 147.764 430.656 139.092 440.105 134.384C449.09 129.906 459.258 131.303 466.566 138.018L468.744 140.02L469.066 136.662C469.373 133.456 469.579 133.298 473.637 133.161C476.231 133.072 477.898 133.462 477.916 134.161C477.933 134.79 477.919 147.852 477.887 163.187C477.821 194.826 477.297 197.492 469.809 204.257C462.209 211.123 447.838 212.693 438.727 207.654C434.944 205.561 427.887 197.896 427.887 195.879C427.887 195.455 429.773 194.367 432.079 193.462L436.271 191.815L439.254 195.434C449.455 207.81 468.887 200.408 468.887 184.148C468.887 179.148 468.162 178.819 464.87 182.323C462.474 184.874 454.561 187.805 450.072 187.805C441.976 187.805 432.24 180.905 428.253 172.343C426.487 168.552 425.904 165.542 425.897 160.181ZM516.887 184.304C497.989 173.999 498.884 143.235 518.346 134.172C535.069 126.384 553.376 137.513 554.159 155.943L554.387 161.305L533.637 161.575C518.018 161.779 512.892 162.15 512.909 163.075C512.921 163.752 513.757 166.105 514.768 168.305C519.84 179.351 533.135 182.075 541.101 173.701L544.818 169.794L548.852 171.408C551.071 172.296 552.887 173.422 552.887 173.911C552.887 175.692 545.417 183.006 541.455 185.104C538.351 186.748 535.61 187.264 529.887 187.281C523.419 187.3 521.63 186.891 516.887 184.304ZM657.887 143.688C657.887 141.827 664.66 135.359 668.378 133.67C673.957 131.136 684.034 131.235 689.869 133.882C695.532 136.451 697.568 138.303 700.224 143.305C702.132 146.898 702.384 149.263 702.709 166.555L703.071 185.805H697.979C692.99 185.805 692.887 185.744 692.887 182.812V179.818L688.392 183.25C675.422 193.15 655.887 185.558 655.887 170.617C655.887 163.708 658.81 158.522 664.635 155.098C668.83 152.632 670.383 152.305 677.887 152.305C682.562 152.305 687.916 152.693 689.784 153.167L693.182 154.029L692.522 150.732C690.544 140.842 677.03 137.398 669.362 144.83L665.949 148.137L661.918 146.319C659.701 145.319 657.887 144.135 657.887 143.688ZM715.347 158.762C709.594 145.641 704.887 134.41 704.887 133.803C704.887 133.105 706.75 132.811 709.97 133.003L715.053 133.305L722.615 151.555C726.774 161.592 730.449 169.799 730.782 169.792C731.115 169.785 734.537 161.873 738.387 152.21C742.237 142.546 745.906 134.208 746.54 133.68C747.982 132.481 756.453 133.078 756.203 134.362C755.856 136.134 724.732 207.303 723.948 208.115C723.518 208.561 721.078 208.786 718.526 208.615L713.886 208.305L719.847 195.461L725.808 182.617L715.347 158.762ZM61.2026 208.805C60.7598 208.805 76.3677 192.83 95.8867 173.305C115.406 153.78 131.596 137.805 131.864 137.805C132.872 137.805 151.887 157.314 151.887 158.349C151.887 158.944 137.6 167.237 120.137 176.779C102.674 186.32 82.4517 197.43 75.1978 201.466C67.9438 205.502 61.647 208.805 61.2026 208.805ZM354.887 159.813C354.887 151.423 350.517 144.493 343.572 141.869C329.075 136.391 315.891 153.207 322.783 168.384C330.644 185.692 354.887 179.22 354.887 159.813ZM410.897 167.305C414.239 158.45 410.774 147.287 403.384 143.102C395 138.353 384.685 141.546 380.115 150.303C377.739 154.856 378.005 164.419 380.648 169.454C387.323 182.176 405.779 180.865 410.897 167.305ZM448.231 177.898C467.23 183.014 477.095 153.431 459.887 142.945C456.528 140.898 450.353 140.224 446.887 141.527C440.132 144.065 435.887 150.923 435.887 159.297C435.887 168.919 440.456 175.804 448.231 177.898ZM543.763 152.262C544.94 151.086 540.099 144.388 536.79 142.613C532.834 140.491 526.658 140.33 522.283 142.234C519.027 143.652 515.323 148.047 514.734 151.195C514.409 152.933 515.281 153.042 528.776 152.954C536.69 152.903 543.434 152.591 543.763 152.262ZM692.491 166.036C693.031 163.336 692.745 162.965 688.962 161.452C677.258 156.769 663.605 163.459 666.59 172.414C667.604 175.455 673.03 178.817 676.871 178.783C683.606 178.724 691.191 172.534 692.491 166.036Z" fill="white"/>
</svg>
