<svg width="800" height="262" viewBox="0 0 800 262" fill="none" xmlns="http://www.w3.org/2000/svg">
<path fill-rule="evenodd" clip-rule="evenodd" d="M6.15825 15.71C10.7066 9.31397 17.6036 4.15199 24.5835 1.92103C30.1915 0.129036 42.8516 0.0649492 399.532 0.0129472C765.221 -0.0400313 768.736 -0.0219649 775.032 1.94703C782.372 4.24305 788.913 9.09498 793.647 15.7531C794.535 17.0022 795.298 17.9905 795.953 19.0459C800.139 25.7891 799.912 35.2719 799.655 133.028L799.387 235.459L796.717 241.155C793.312 248.422 786.35 255.383 779.084 258.789L773.387 261.459H399.887H26.3873L20.8873 258.873C13.6602 255.474 6.93462 248.794 3.31255 241.416L0.387254 235.459L0.119188 133.028C-0.13716 35.3045 -0.366652 25.796 3.82964 19.0341C4.49028 17.9692 5.26079 16.9724 6.15825 15.71ZM789.708 26.3149C786.672 19.287 782.876 15.109 776.736 12.041L770.568 8.95899L399.978 8.969L29.3873 8.97901L24.3873 11.325C18.0533 14.298 14.2266 18.125 11.2535 24.459L8.90727 29.459L8.89751 131.22L8.88725 232.981L11.0655 237.615C13.6954 243.209 18.2173 247.909 23.4844 250.522C27.3213 252.426 33.7032 252.463 398.367 252.713C732.769 252.942 769.813 252.813 774.061 251.402C779.715 249.523 785.756 243.928 788.705 237.835L790.861 233.38L790.901 131.276C790.932 52.46 790.659 28.5189 789.708 26.3149ZM140.335 54.118C144.658 49.497 153.889 43.7 159.742 41.93C166.302 39.948 167.331 41.519 165.778 51.154C164.643 58.212 160.533 66.761 155.444 72.656C150.657 78.203 139.283 83.959 133.11 83.959H128.603L129.252 77.742C130.088 69.738 134.481 60.378 140.335 54.118ZM418.887 85.959V63.459V40.959H421.887H424.887V63.459V85.959H421.887H418.887ZM529.887 50.126C529.887 45.817 530.209 41.972 530.601 41.58C530.991 41.188 532.454 41 533.851 41.163L536.387 41.459L536.656 63.709L536.925 85.959H533.906C531.522 85.959 530.887 85.525 530.887 83.891C530.887 81.829 530.878 81.829 527.796 84.024C521.092 88.798 511.802 87.014 507.157 80.061C502.832 73.586 504.792 62.236 511.023 57.67C514.728 54.956 521.895 54.317 525.948 56.339C527.733 57.23 529.35 57.959 529.542 57.959C529.732 57.959 529.887 54.434 529.887 50.126ZM675.887 64.126C675.887 52.117 676.209 41.972 676.601 41.58C676.991 41.188 678.454 41 679.851 41.163C682.323 41.452 682.395 41.677 682.675 50.153L682.963 58.847L686.47 56.778C691.583 53.761 698.345 54.669 702.106 58.876C704.82 61.915 704.887 62.28 704.887 73.975V85.959H701.887H698.887V75.893C698.887 62.584 697.562 60.003 690.711 59.974C687.918 59.963 686.533 60.593 684.961 62.594C683.167 64.875 682.887 66.622 682.887 75.594V85.959H679.387H675.887V64.126ZM243.887 44.08L247.637 43.627C254.009 42.857 266.784 43.934 270.923 45.59C286.17 51.691 286.651 75.423 271.681 83.063C266.931 85.488 255.876 87.071 249.137 86.291L243.887 85.684V64.882V44.08ZM275.67 64.981C276.071 56.897 273.856 52.755 267.616 49.923C264.81 48.648 261.118 47.996 256.637 47.981L249.887 47.959V65.091V82.222L257.137 81.752C269.935 80.922 275.113 76.235 275.67 64.981ZM654.887 52.657C654.887 51.356 655.188 49.992 655.554 49.626C655.92 49.259 657.271 48.959 658.554 48.959C660.554 48.959 660.887 49.459 660.887 52.459C660.887 55.94 660.911 55.959 665.387 55.959C669.22 55.959 669.887 56.255 669.887 57.959C669.887 59.663 669.22 59.959 665.387 59.959H660.887V69.759C660.887 80.444 661.533 81.959 666.087 81.959C668.211 81.959 668.887 82.437 668.887 83.9399C668.887 87.831 660.755 87.827 656.862 83.934C655.135 82.207 654.887 80.578 654.887 70.959C654.887 60.023 654.874 59.959 652.494 59.959C649.966 59.959 648.051 57.142 650.154 56.517C654.339 55.274 654.887 54.827 654.887 52.657ZM288.838 66.66C290.292 61.735 293.202 58.231 297.387 56.371C304.794 53.079 314.424 55.603 318.706 61.959C320.681 64.893 321.003 66.434 320.692 71.483C320.143 80.409 315.889 85.135 307.148 86.533C295.265 88.433 285.533 77.871 288.838 66.66ZM384.887 57.459C384.887 59.391 385.189 59.355 389.113 56.963C393.044 54.566 398.873 54.383 403.015 56.525C407.524 58.857 408.887 63.244 408.887 75.427V85.959H405.999H403.108L402.735 75.05C402.432 66.208 402.013 63.755 400.521 62.106C398.312 59.665 395.37 59.062 391.607 60.278C387.259 61.682 385.887 65.551 385.887 76.409V85.959H382.887H379.887V70.959V55.959H382.387C383.943 55.959 384.887 56.526 384.887 57.459ZM434.848 62.255C435.923 60.492 438.509 58.15 440.595 57.049C445.634 54.389 452.828 54.378 458.011 57.022C465.495 60.84 468.158 72.907 463.073 79.959C460.646 83.326 453.282 86.959 448.887 86.959C443.565 86.959 436.713 83.113 434.639 78.959C432.272 74.219 432.37 66.32 434.848 62.255ZM473.887 59.149C473.887 57.852 474.875 56.765 476.637 56.121C480.755 54.617 488.617 54.768 491.796 56.412C495.748 58.455 496.73 61.842 497.097 74.709L497.419 85.959H494.653C492.909 85.959 491.887 85.426 491.887 84.515C491.887 83.344 491.01 83.459 487.249 85.124C481.436 87.695 476.304 87.081 473.137 83.437C466.638 75.957 474.265 66.984 487.137 66.965C490.218 66.96 490.887 66.602 490.887 64.959C490.887 63.859 489.931 62.003 488.762 60.834C487.002 59.073 485.848 58.804 482.012 59.2629C479.468 59.568 476.599 60.122 475.637 60.495C474.323 61.004 473.887 60.668 473.887 59.149ZM558.909 71.561C558.944 65.002 561.94 59.646 567.014 57.069C575.765 52.624 587.254 55.807 590.501 63.576C594.066 72.11 591.024 80.573 582.879 84.778C572.161 90.31 558.848 82.969 558.909 71.561ZM604.887 57.929C604.887 59.797 605.075 59.771 608.527 57.429C612.859 54.489 618.75 54.174 622.953 56.657C627.29 59.218 628.887 64.422 628.887 75.979V85.959H625.387H621.887V75.07C621.887 66.147 621.571 63.81 620.137 62.13C617.255 58.753 611.873 58.883 608.342 62.4139C606.046 64.709 605.887 65.55 605.887 75.4139V85.959H602.887H599.887V70.959V55.959H602.387C604.209 55.959 604.887 56.494 604.887 57.929ZM716.739 81.8C709.996 74.582 712.572 60.181 721.283 56.3879C725.489 54.557 732.334 54.621 736.015 56.525C739.337 58.243 742.83 64.709 742.865 69.209L742.887 71.959H730.887C719.406 71.959 718.887 72.049 718.887 74.036C718.887 75.178 720.26 77.486 721.939 79.1639C724.904 82.13 725.198 82.202 732.39 81.74C738.386 81.356 739.901 81.553 740.374 82.782C741.154 84.818 739.392 85.752 733.34 86.508C726.64 87.345 720.217 85.524 716.739 81.8ZM330.209 72.459C327.819 65.309 325.606 58.64 325.286 57.639C324.794 56.091 325.205 55.867 328.022 56.139C331.324 56.458 331.342 56.489 334.366 67.131C336.034 73.001 337.63 78.035 337.912 78.318C338.195 78.6 340.216 73.665 342.403 67.35C346.324 56.029 346.42 55.873 349.301 56.1639C352.063 56.443 352.43 57.055 355.97 67.29C358.03 73.247 359.895 78.299 360.112 78.517C360.331 78.735 362.032 73.749 363.895 67.436L367.279 55.959H370.541H373.801L370.234 65.709C368.273 71.072 365.89 77.709 364.94 80.459C363.428 84.825 362.827 85.497 360.192 85.762C357.236 86.058 357.112 85.885 354.107 77.262C352.419 72.42 350.732 67.225 350.357 65.716C349.567 62.545 348.383 62.847 347.479 66.451C347.132 67.832 345.456 72.811 343.753 77.515C340.724 85.886 340.593 86.062 337.605 85.764C334.631 85.467 334.438 85.117 330.209 72.459ZM314.883 70.241C314.878 66.487 311.468 61.13 308.321 59.934C300.773 57.064 294.992 61.92 294.922 71.193C294.895 74.995 295.429 76.516 297.637 78.918C300.917 82.484 304.313 83.241 308.718 81.3879C312.23 79.912 314.89 75.101 314.883 70.241ZM456.396 78.768C460.918 73.392 459.086 62.737 453.175 60.044C448.409 57.873 443.793 59.426 440.898 64.174C438.52 68.075 438.357 71.752 440.351 76.524C443.085 83.069 451.755 84.282 456.396 78.768ZM529.887 71.06C529.887 66.273 529.436 64.557 527.637 62.514C523.322 57.61 516.425 58.387 512.898 64.174C509.499 69.749 511.004 78.346 515.833 80.929C519.363 82.819 524.783 82.153 527.432 79.504C529.492 77.445 529.887 76.086 529.887 71.06ZM576.852 82.288C585.957 80.878 588.592 65.799 580.586 60.917C572.923 56.245 565.501 61.123 565.505 70.827C565.508 78.455 570.306 83.301 576.852 82.288ZM735.887 63.916C735.887 63.433 734.902 62.119 733.698 60.998C730.414 57.938 725.38 58.312 721.811 61.882C716.671 67.021 717.627 67.959 727.994 67.959C735.888 67.959 737.021 67.748 736.494 66.377C736.16 65.507 735.887 64.4 735.887 63.916ZM483.54 82.252C488.356 82.115 490.887 79.549 490.887 74.804V70.959H486.523C481.338 70.959 476.887 73.939 476.887 77.409C476.887 80.556 479.379 82.37 483.54 82.252ZM62.1553 107.149C68.4454 96.743 80.1656 87.511 90.9112 84.499C98.8174 82.282 107.764 83.171 121.104 87.496C134.402 91.809 137.763 91.732 150.89 86.82C158.14 84.107 160.79 83.627 168.938 83.549C178.044 83.463 178.84 83.633 186.083 87.212C192.845 90.553 203.887 99.004 203.887 100.838C203.887 101.22 201.669 103.188 198.959 105.212C177.441 121.276 179.525 155.12 202.921 169.561C206.202 171.586 208.887 173.641 208.887 174.126C208.887 176.106 201.254 190.009 195.731 198.091C188.857 208.146 180.693 216.237 174.653 218.979C168.222 221.898 162.628 221.493 152.54 217.38C141.08 212.708 132.023 212.436 121.387 216.443C105.489 222.432 100.231 222.462 91.4205 216.612C80.9156 209.637 66.5074 187.954 60.3516 169.852C52.5245 146.842 53.2422 121.896 62.1553 107.149ZM487.278 135.231C483.375 121.802 490.334 110.297 505.387 105.293C510.564 103.573 524.782 104.221 531.137 106.468C533.75 107.391 535.887 108.403 535.887 108.715C535.887 109.028 535.126 111.7 534.194 114.654C532.882 118.815 532.15 119.874 530.944 119.357C513.958 112.073 499.887 116.224 499.887 128.518C499.887 131.57 500.607 132.952 503.748 135.941C505.872 137.961 510.258 140.658 513.497 141.935C532.136 149.281 538.887 156.826 538.887 170.313C538.887 181.905 531.32 191.8 520.065 194.926C511.123 197.41 492.592 195.474 486.193 191.387C484.051 190.02 484.038 189.873 485.576 185.223C486.443 182.603 487.464 180.11 487.845 179.684C488.226 179.258 491.204 180.142 494.462 181.649C499.252 183.863 501.843 184.393 507.981 184.41C514.569 184.43 516.11 184.077 519.637 181.743C526.267 177.356 527.666 168.76 522.762 162.527C520.527 159.686 514.209 156.174 505.412 152.882C502.119 151.65 497.673 148.788 494.389 145.787C489.952 141.732 488.572 139.683 487.278 135.231ZM243.887 194.61C243.887 193.674 272.109 111.021 273.403 108.165L274.897 104.872L282.143 105.165L289.387 105.459L294.544 120.459C297.379 128.709 304.028 148.164 309.318 163.692C314.609 179.221 319.199 192.608 319.52 193.442C320.007 194.714 318.904 194.959 312.703 194.959H305.304L300.879 181.434L296.454 167.909L281.501 168.184L266.547 168.459L262.234 181.459C259.862 188.609 257.914 194.572 257.904 194.709C257.878 195.1 243.887 195.002 243.887 194.61ZM550.387 118.718L555.887 116.941C560.09 115.584 562.088 114.856 563.036 115.554C563.965 116.238 563.887 118.29 563.887 122.459V129.959H571.887H579.887V135.459V140.959H571.829H563.771L564.079 161.049C564.386 181.067 564.397 181.147 566.869 183.147C568.878 184.773 570.233 185.038 573.987 184.54L578.624 183.925L579.19 188.692C579.931 194.923 578.571 195.959 569.656 195.959C560.381 195.959 555.877 193.634 552.787 187.253C550.657 182.853 550.452 180.955 550.166 162.97C549.993 152.239 549.86 142.897 549.87 142.209C549.881 141.392 548.329 140.959 545.387 140.959H540.887V135.459V129.959H545.387C548.259 129.959 549.929 129.507 550.003 128.709C550.066 128.022 550.178 125.492 550.253 123.088L550.387 118.718ZM292.284 156.092C292.488 155.744 290.238 148.259 287.283 139.459C284.328 130.659 281.742 123.009 281.535 122.459C281.329 121.909 280.612 123.484 279.943 125.959C279.275 128.434 276.791 136.201 274.42 143.219C272.05 150.237 270.498 156.218 270.969 156.51C272.17 157.252 291.832 156.866 292.284 156.092ZM341.687 134.831C343.636 133.118 346.617 131.115 348.31 130.377C352.163 128.7 362.877 128.576 368.124 130.148C373.716 131.824 381.144 138.854 384.002 145.18C386.079 149.775 386.384 151.948 386.362 161.959C386.332 175.803 384.343 181.388 377.002 188.255C370.533 194.305 364.913 196.28 355.507 195.805C349.002 195.476 347.398 194.999 343.445 192.213L338.887 189V205.025V221.05L332.137 220.755L325.387 220.459L325.128 175.209L324.867 129.959H330.865H336.863L337.503 133.951L338.14 137.944L341.687 134.831ZM411.396 134.952C413.178 133.223 416.38 131.188 418.512 130.428C427.538 127.211 440.42 129.42 446.757 135.271C455.429 143.278 459.056 159.213 455.4 173.248C451.63 187.723 441.505 195.915 427.387 195.915C420.492 195.915 413.05 193.649 411.451 191.063C409.476 187.865 408.887 191.176 408.887 205.505V221.05L402.137 220.755L395.387 220.459L395.128 175.209L394.867 129.959H400.878C406.567 129.959 406.887 130.088 406.887 132.377C406.887 133.707 407.172 135.538 407.521 136.445C408.055 137.839 408.654 137.608 411.396 134.952ZM583.898 148.432C586.917 140.492 594.319 133.352 602.59 130.401C607.782 128.549 619.531 128.618 625.153 130.534C631.524 132.705 638.224 138.908 641.581 145.745C644.116 150.907 644.387 152.474 644.383 161.959C644.379 174.906 642.271 180.415 634.508 187.756C627.589 194.3 621.437 196.35 610.521 195.751C598.322 195.081 590.562 190.169 585.302 179.791C581.062 171.422 580.44 157.529 583.898 148.432ZM668.137 135.216C669.925 133.492 672.737 131.37 674.387 130.501C676.16 129.567 679.228 129.031 681.887 129.19L686.387 129.459L686.686 135.709L686.982 141.959L682.186 141.963C675.924 141.968 671.732 144.585 669.024 150.177C667.059 154.238 666.887 156.204 666.887 174.775V194.959H659.887H652.887V162.459V129.959H658.887H664.887V134.155V138.351L668.137 135.216ZM690.157 145.68C693.161 139.118 697.9 134.328 704.366 131.317C710.822 128.31 722.348 128.074 728.387 130.825C737.636 135.037 743.275 145.243 743.345 157.898L743.387 165.459L721.637 165.729L699.887 165.998L699.909 168.229C699.94 171.232 703.152 178.057 705.532 180.171C710.885 184.923 722.807 186.392 732.458 183.488C735.146 182.679 737.689 182.36 738.107 182.778C738.525 183.197 739.15 185.598 739.495 188.113L740.121 192.686L732.964 194.44C723.022 196.877 709.15 196.229 702.887 193.034C696.773 189.916 693.169 186.377 690.22 180.597C685.098 170.557 685.074 156.784 690.157 145.68ZM627.375 148.428C625.717 145.748 623.017 142.781 621.375 141.833C608.217 134.244 595.445 144.692 595.505 162.995C595.526 169.362 595.972 171.345 598.381 175.771C603.597 185.354 613.314 188.252 621.676 182.717C627.796 178.668 630.387 172.468 630.387 161.879C630.387 154.083 630.112 152.855 627.375 148.428ZM730.273 152.209C728.883 146.346 726.878 142.924 723.697 140.985C714.761 135.536 703.95 140.984 700.428 152.709L699.753 154.959H715.339H730.925L730.273 152.209ZM369.597 148.097C368.063 145.778 365.362 143 363.597 141.924C357.49 138.2 348.595 139.952 343.627 145.858C340.146 149.994 338.899 154.768 338.894 163.997C338.883 176.738 343.946 183.778 353.801 184.725C359.999 185.32 363.927 183.817 367.851 179.349C371.728 174.933 373.157 169.243 372.733 159.922C372.446 153.615 371.909 151.591 369.597 148.097ZM432.287 183.565C446.417 177.662 446.417 147.256 432.287 141.353C425.363 138.46 418.485 140.236 413.169 146.292C409.311 150.686 408.578 154.146 409.036 165.835C409.424 175.757 410.701 178.506 416.878 182.709C420.733 185.334 427.195 185.693 432.287 183.565Z" fill="white"/>
</svg>
