<svg width="88" height="30" fill="none" xmlns="http://www.w3.org/2000/svg"><path fill-rule="evenodd" clip-rule="evenodd" d="M11.073.499c.879-.263 1.196-.333 1.9-.419 1.334-.163 2.409-.082 3.865.29.541.137.817.234 1.453.508.248.108.77.38.809.424.016.018.146.105.289.194.376.233.945.75 1.275 1.16.157.195.286.371.286.392 0 .02.05.1.11.177.232.293.641 1.562.641 1.988 0 .252.067.288.614.328.42.03 1.532.341 1.64.459.017.017.147.097.29.178.523.294 1.117.963 1.431 1.611.149.305.3.96.387 1.673.143 1.167.188 1.456.381 2.477.1.53.204 1.2.23 1.486.025.287.086.745.136 1.017.05.273.132.777.182 1.121.05.345.116.755.147.913.03.158.096.568.145.913.048.344.113.79.143.99.03.201.08.553.112.782.09.66.277 1.787.372 2.243.114.546.12 1.841.01 2.169a3.83 3.83 0 0 1-.518.95c-.131.161-.664.542-.904.646-.074.032-.131.06-.19.084-.429.177-.935.167-8.394.192l-7.862.026-.289.136c-.311.145-.542.266-1.792.934-1.267.677-1.763.939-2.168 1.146-.206.106-.727.375-1.156.6l-.896.465c-.064.032-.262.144-.442.248-.18.105-.387.199-.462.208l-.137.018-.015-1.884-.015-1.883-.468-.12c-.507-.13-.98-.38-1.364-.718-.309-.273-.508-.558-.695-.995-.129-.3-.149-.43-.154-.997-.005-.589.036-.952.197-1.747.169-.835.234-1.193.29-1.59.036-.244.087-.584.114-.756a56.9 56.9 0 0 0 .114-.756c.034-.244.088-.573.118-.73.28-1.465.42-2.32.52-3.207.047-.413.142-.979.351-2.086.064-.338.141-.852.228-1.512.03-.23.079-.558.109-.73l.12-.705c.197-1.173.723-2.028 1.585-2.576.402-.256.94-.487 1.278-.55.127-.025.363-.069.525-.098.162-.03.489-.06.727-.065l.433-.01.073-.397a5.24 5.24 0 0 1 .119-.527c.025-.072.08-.236.12-.365.105-.333.672-1.365.84-1.528.077-.075.14-.159.14-.186 0-.081.934-.92 1.236-1.108.592-.37 1.42-.777 1.836-.901Zm6.12 2.038c-.745-.313-1.116-.406-2.14-.532-.796-.098-.929-.093-2.11.08-1.164.169-2.166.626-2.96 1.349-.418.38-.812.998-1.034 1.621-.106.299-.11.346-.034.386.049.026 2.437.059 5.368.073l5.28.026v-.187a.97.97 0 0 0-.051-.308 5.586 5.586 0 0 1-.12-.328c-.3-.906-1.13-1.73-2.2-2.18Zm-6.72 7.387a2.442 2.442 0 0 0-1.143-.589 2.121 2.121 0 0 0-.318-.047c-.816.074-1.21.255-1.622.748-.393.469-.43.564-.43 1.12 0 .577.107.82.519 1.184.905.8 2.012.85 2.849.13.48-.414.642-.74.647-1.308.004-.58-.118-.88-.502-1.238Zm11.2 1.404c.03-.674.024-.743-.07-.787-.058-.028-1.5-.066-3.257-.087-2.759-.033-3.162-.028-3.224.04-.052.056-.067.295-.056.853l.016.775 3.234.013c1.779.008 3.255-.005 3.28-.027.024-.023.06-.374.078-.78ZM7.892 17.623c-.025 0-.093-.047-.15-.104-.058-.057-.135-.104-.173-.104-.037 0-.235.177-.439.394-.204.218-.508.53-.674.696-.167.166-.304.346-.304.4 0 .057.094.156.217.23.12.072.269.174.332.227.259.216 1.525.931 2.111 1.192.503.224 1.602.615 1.728.615.063 0 .129.02.146.046.018.026.117.06.22.075.104.015.293.051.42.08 1.2.271 1.866.335 3.208.306 1.402-.03 1.993-.1 3.035-.36.493-.123 1.307-.38 1.532-.484l.694-.317c.704-.32 1.716-.928 2.194-1.319.368-.3.372-.308.28-.43a8.09 8.09 0 0 0-.59-.582c-.273-.25-.497-.474-.497-.495 0-.022-.067-.067-.148-.101-.12-.05-.18-.045-.33.026-.101.048-.21.114-.243.146-.106.105-.913.57-1.447.834-1.035.513-2.07.84-3.135.992-.84.12-2.96.12-3.57.001-.49-.095-1.424-.354-1.764-.489-.397-.157-1.007-.44-1.161-.54a.755.755 0 0 0-.197-.1c-.058 0-.896-.54-1.087-.7-.089-.074-.183-.135-.208-.135ZM42.75 5.162c.142-.133.423-.312.624-.399.45-.191.832-.2 1.21-.026.589.271.736.477 2.127 2.98a893.774 893.774 0 0 0 3.749 6.654c1.448 2.54 1.628 2.838 1.648 3.147.004.063 0 .125 0 .207 0 .392-.024.47-.223.695-.31.352-.809.564-1.424.603-.43.028-.557.009-.894-.135-.217-.093-.475-.268-.575-.39-.217-.265-4.212-7.4-4.371-7.806-.147-.373-.448-.724-.623-.724-.242 0-.481.368-1.75 2.682-2.616 4.77-3.173 5.739-3.406 5.93-.286.237-.827.352-1.472.315-.406-.023-.531-.06-.76-.228a1.425 1.425 0 0 1-.61-1.198c-.002-.406.018-.448 1.705-3.459.938-1.676 2.4-4.298 3.247-5.827 1.031-1.86 1.627-2.86 1.799-3.021Zm28.828-.095c.11-.111.334-.246.495-.299.247-.08.944-.093 4.33-.076l4.038.02.657.182c2.831.785 4.764 2.366 5.626 4.602.543 1.41.566 3.251.058 4.702-.157.45-.637 1.353-.898 1.691-.838 1.083-2.077 1.968-3.719 2.657l-.623.261-4.686.019c-4.634.018-4.688.017-4.932-.12a1.393 1.393 0 0 1-.398-.357c-.149-.217-.15-.282-.15-6.65V5.27l.202-.202ZM53.6 5.718c.18-.37.647-.798.983-.902.362-.112 8.292-.034 8.94.088 1.322.249 3.043 1.168 4.1 2.188 1.485 1.435 2.07 2.93 1.97 5.028-.111 2.29-1.28 4.286-3.245 5.543-.572.366-1.075.609-1.924.929l-.571.215-4.771-.001c-4.343-.002-4.924.021-5.188-.257-.062-.065-.106-.147-.178-.25l-.177-.252-.045-6.009c-.045-5.969-.044-6.011.106-6.32ZM65.307 9.82c-.546-.671-1.732-1.385-2.895-1.741-.52-.16-.576-.163-2.895-.163h-2.364l-.046.164c-.074.266-.047 7.506.028 7.548.037.02 1.3.044 2.805.053l2.738.014.44-.226c2.042-1.052 3.04-2.345 2.96-3.84-.034-.64-.27-1.194-.77-1.81Zm16.826-.7a5.102 5.102 0 0 0-2.096-1.067c-.498-.125-.749-.137-2.758-.137-2.048 0-2.22.009-2.332.12-.11.11-.121.476-.121 3.874v3.752H80l.707-.288c1.165-.474 1.983-1.126 2.436-1.941.328-.59.423-1.1.337-1.795a3.844 3.844 0 0 0-1.347-2.517ZM63.578 21.674a.882.882 0 0 1 .239-.133.462.462 0 0 1 .22 0c.26.078.294.224.294 1.252v1.014h1.137c1.04 0 1.15.011 1.285.132.195.176.187.43-.016.56-.25.157-2.959.151-3.153-.007-.121-.1-.134-.234-.134-1.413 0-1.16.014-1.315.128-1.405ZM48.55 23.066c0-1.088.017-1.286.122-1.39.245-.244.512-.158 1.099.355l.544.476.522-.476c.4-.365.57-.476.727-.476.413 0 .436.08.436 1.523 0 1.434-.025 1.523-.422 1.523-.389 0-.459-.146-.459-.951v-.732l-.315.278c-.406.36-.599.363-.997.014a3.86 3.86 0 0 0-.321-.265c-.01 0-.018.33-.018.734 0 .65-.017.745-.143.828a.512.512 0 0 1-.628-.039c-.137-.123-.147-.22-.147-1.402Zm7.487 1.165c0-.158.936-1.914 1.29-2.42.138-.196.227-.256.38-.255.11 0 .239.023.284.05.046.026.404.627.796 1.333.604 1.091.7 1.308.637 1.435a.433.433 0 0 1-.232.194c-.355.101-.46.003-.952-.892-.26-.475-.492-.863-.514-.863-.021 0-.234.36-.472.8-.239.44-.48.843-.537.894-.241.217-.68.04-.68-.276Zm14.826-1.151c0-1.007.02-1.257.114-1.378.08-.103.19-.147.363-.147.423 0 .477.146.477 1.273v.978h1.114c1.23 0 1.382.044 1.382.403 0 .37-.09.392-1.69.392-.993 0-1.43.034-1.619-.165-.175-.184-.14-.566-.14-1.356Z" fill="#fff"/></svg>