<svg width="28" height="28" fill="none" xmlns="http://www.w3.org/2000/svg"><rect width="28" height="28" rx="14" fill="#F8283E"/><path d="M11.053 21.263a.632.632 0 1 0 0-1.263.632.632 0 0 0 0 1.263ZM18 21.263A.632.632 0 1 0 18 20a.632.632 0 0 0 0 1.263Z" fill="#F8283E" stroke="#fff" stroke-width="2" stroke-linecap="round" stroke-linejoin="round"/><path d="M6 8h2.526l1.693 8.457a1.264 1.264 0 0 0 1.263 1.017h6.14a1.263 1.263 0 0 0 1.262-1.017l1.01-5.3H9.159" fill="#F8283E"/><path d="M6 8h2.526l1.693 8.457a1.264 1.264 0 0 0 1.263 1.017h6.14a1.263 1.263 0 0 0 1.262-1.017l1.01-5.3H9.159" stroke="#fff" stroke-width="2" stroke-linecap="round" stroke-linejoin="round"/></svg>